<?xml version="1.0" encoding="UTF-8"?>
<svg width="32px" height="32px" viewBox="0 0 32 32" version="1.1" xmlns="http://www.w3.org/2000/svg" xmlns:xlink="http://www.w3.org/1999/xlink">
    <!-- Generator: Sketch 44.1 (41455) - http://www.bohemiancoding.com/sketch -->
    <title>sm-icons-linkedln</title>
    <desc>Created with Sketch.</desc>
    <defs></defs>
    <g id="Page-1" stroke="none" stroke-width="1" fill="none" fill-rule="evenodd">
        <g id="sm-icons-linkedln" fill-rule="nonzero">
            <circle id="Oval" fill="#0071BC" cx="16" cy="16" r="16"></circle>
            <path d="M11.608,9.176 C11.608,9.816 11.352,10.328 10.968,10.712 C10.584,11.096 9.944,11.224 9.304,11.224 L9.304,11.224 C8.664,11.224 8.024,10.968 7.64,10.584 C7.256,10.2 7,9.688 7,9.176 C7,8.536 7.256,8.024 7.64,7.64 C8.024,7.256 8.664,7 9.304,7 C9.944,7 10.584,7.256 10.968,7.64 C11.352,8.024 11.608,8.536 11.608,9.176 Z M11.352,12.888 L11.352,25.304 L7.256,25.304 L7.256,12.888 L11.352,12.888 Z M26.2,18.264 L26.2,25.304 L22.104,25.304 L22.104,18.648 C22.104,17.752 21.976,17.112 21.592,16.6 C21.208,16.088 20.696,15.832 20.056,15.832 C19.544,15.832 19.032,15.96 18.776,16.216 C18.392,16.472 18.136,16.856 18.008,17.24 C17.88,17.496 17.88,17.88 17.88,18.264 L17.88,25.176 L13.784,25.176 C13.784,21.848 13.784,19.16 13.784,17.112 C13.784,15.064 13.784,13.784 13.784,13.4 L13.784,12.76 L17.88,12.76 L17.88,14.552 L17.88,14.552 C18.008,14.296 18.264,14.04 18.392,13.912 C18.52,13.656 18.776,13.528 19.16,13.272 C19.416,13.016 19.8,12.888 20.184,12.76 C20.568,12.632 21.08,12.504 21.592,12.504 C23,12.504 24.152,13.016 25.048,13.912 C25.816,15.064 26.2,16.344 26.2,18.264 Z" id="Shape" fill="#FFFFFF"></path>
        </g>
    </g>
</svg>