<?xml version="1.0" encoding="UTF-8"?>
<svg width="32px" height="32px" viewBox="0 0 32 32" version="1.1" xmlns="http://www.w3.org/2000/svg" xmlns:xlink="http://www.w3.org/1999/xlink">
    <!-- Generator: Sketch 44.1 (41455) - http://www.bohemiancoding.com/sketch -->
    <title>sm-icons-stumbleupon</title>
    <desc>Created with Sketch.</desc>
    <defs></defs>
    <g id="Page-1" stroke="none" stroke-width="1" fill="none" fill-rule="evenodd">
        <g id="sm-icons-stumbleupon" fill-rule="nonzero">
            <circle id="Oval" fill="#0071BC" cx="16" cy="16" r="16"></circle>
            <path d="M17.024,14.208 L17.024,13.056 C17.024,12.8 16.896,12.544 16.768,12.288 C16.512,12.032 16.384,12.032 16,12.032 C15.616,12.032 15.488,12.16 15.232,12.288 C14.976,12.544 14.976,12.672 14.976,13.056 L14.976,19.2 C14.976,20.352 14.592,21.376 13.696,22.272 C12.8,23.168 11.776,23.552 10.624,23.552 C9.472,23.552 8.448,23.168 7.552,22.272 C6.656,21.376 6.272,20.352 6.272,19.2 L6.272,16.512 L9.6,16.512 L9.6,19.2 C9.6,19.456 9.728,19.712 9.856,19.968 C10.112,20.224 10.24,20.224 10.624,20.224 C11.008,20.224 11.136,20.096 11.392,19.968 C11.648,19.712 11.648,19.584 11.648,19.2 L11.648,12.8 C11.648,11.648 12.032,10.624 12.928,9.856 C13.824,9.088 14.848,8.576 16,8.576 C17.152,8.576 18.176,8.96 19.072,9.856 C19.968,10.624 20.352,11.648 20.352,12.8 L20.352,14.208 L18.432,14.848 L17.024,14.208 Z M22.4,16.512 L25.728,16.512 L25.728,19.2 C25.728,20.352 25.344,21.376 24.448,22.272 C23.552,23.168 22.528,23.552 21.376,23.552 C20.224,23.552 19.2,23.168 18.304,22.272 C17.408,21.376 17.024,20.48 17.024,19.2 L17.024,16.512 L18.304,17.152 L20.224,16.512 L20.224,19.2 C20.224,19.456 20.352,19.712 20.48,19.968 C20.736,20.224 20.864,20.224 21.248,20.224 C21.504,20.224 21.76,20.096 22.016,19.968 C22.272,19.712 22.272,19.584 22.272,19.2 L22.4,16.512 L22.4,16.512 Z" id="Shape" fill="#FFFFFF"></path>
        </g>
    </g>
</svg>