<?xml version="1.0" encoding="UTF-8"?>
<svg width="32px" height="32px" viewBox="0 0 32 32" version="1.1" xmlns="http://www.w3.org/2000/svg" xmlns:xlink="http://www.w3.org/1999/xlink">
    <!-- Generator: Sketch 44.1 (41455) - http://www.bohemiancoding.com/sketch -->
    <title>sm-icons-weibo</title>
    <desc>Created with Sketch.</desc>
    <defs></defs>
    <g id="Page-1" stroke="none" stroke-width="1" fill="none" fill-rule="evenodd">
        <g id="sm-icons-weibo" fill-rule="nonzero">
            <circle id="Oval" fill="#0071BC" cx="16" cy="16" r="16"></circle>
            <path d="M23.68,18.688 C23.68,19.2 23.552,19.712 23.296,20.352 C23.04,20.864 22.528,21.376 22.016,21.888 C21.504,22.4 20.864,22.912 20.096,23.296 C19.328,23.68 18.432,24.064 17.536,24.32 C16.512,24.576 15.488,24.704 14.336,24.704 C13.184,24.704 12.16,24.576 11.136,24.32 C10.112,24.064 9.216,23.68 8.32,23.296 C7.552,22.784 6.784,22.272 6.272,21.504 C5.76,20.736 5.504,19.968 5.504,19.2 C5.504,18.304 5.76,17.408 6.272,16.384 C6.784,15.36 7.552,14.336 8.576,13.44 C9.856,12.16 11.264,11.264 12.544,10.752 C13.824,10.24 14.848,10.24 15.36,10.88 C15.872,11.392 16,12.16 15.616,13.312 C15.616,13.44 15.616,13.44 15.616,13.568 C15.616,13.568 15.616,13.696 15.744,13.696 C15.744,13.696 15.872,13.696 15.872,13.696 C15.872,13.696 16,13.696 16,13.696 L16.128,13.696 C17.152,13.184 18.176,13.056 18.944,13.056 C19.712,13.056 20.352,13.312 20.736,13.824 C21.12,14.336 21.12,14.976 20.736,15.872 C20.736,16 20.736,16 20.736,16.128 C20.736,16.128 20.736,16.256 20.736,16.256 C20.736,16.256 20.864,16.384 20.864,16.384 C20.864,16.384 20.992,16.384 21.12,16.512 C21.504,16.64 22.016,16.896 22.272,17.024 C22.656,17.28 22.912,17.536 23.168,17.92 C23.552,17.664 23.68,18.176 23.68,18.688 Z M20.224,18.56 C20.096,17.792 19.84,17.152 19.2,16.64 C18.56,16.128 17.792,15.616 16.768,15.36 C15.744,15.104 14.72,14.976 13.568,15.104 C11.904,15.232 10.368,15.872 9.216,16.768 C8.064,17.664 7.552,18.688 7.68,19.84 C7.808,20.608 8.064,21.248 8.704,21.76 C9.344,22.272 10.112,22.784 11.136,23.04 C12.16,23.296 13.184,23.424 14.336,23.296 C16,23.168 17.536,22.528 18.56,21.632 C19.712,20.736 20.224,19.712 20.224,18.56 Z M16.512,20.48 C16.128,21.248 15.488,21.888 14.72,22.272 C13.824,22.656 12.928,22.656 12.16,22.4 C11.392,22.144 10.752,21.632 10.496,20.992 C10.24,20.352 10.24,19.584 10.624,18.816 C11.008,18.048 11.52,17.536 12.416,17.152 C13.184,16.768 14.08,16.768 14.848,16.896 C15.744,17.152 16.256,17.536 16.64,18.304 C16.896,18.944 16.896,19.712 16.512,20.48 Z M13.44,20.608 C13.568,20.352 13.696,20.096 13.568,19.84 C13.44,19.584 13.312,19.328 13.056,19.2 C12.8,19.072 12.544,19.072 12.16,19.2 C11.904,19.328 11.648,19.456 11.52,19.712 C11.392,19.968 11.264,20.224 11.392,20.48 C11.52,20.736 11.648,20.992 11.904,21.12 C12.16,21.248 12.416,21.248 12.8,21.12 C13.056,20.992 13.312,20.864 13.44,20.608 Z M14.464,19.2 C14.464,19.072 14.592,18.944 14.464,18.944 C14.464,18.816 14.336,18.816 14.208,18.688 C14.08,18.688 13.952,18.688 13.824,18.688 C13.696,18.688 13.568,18.816 13.568,18.944 C13.44,19.2 13.44,19.328 13.696,19.456 C13.824,19.456 13.952,19.456 14.08,19.456 C14.208,19.456 14.464,19.328 14.464,19.2 Z M24.96,9.472 C25.6,10.24 26.112,11.136 26.24,12.032 C26.496,13.056 26.368,13.952 26.112,14.848 C25.984,15.104 25.856,15.232 25.728,15.36 C25.472,15.488 25.344,15.488 25.088,15.36 C24.832,15.232 24.704,15.104 24.576,14.976 C24.448,14.72 24.448,14.592 24.576,14.336 C24.832,13.696 24.832,13.056 24.704,12.288 C24.576,11.648 24.192,11.008 23.808,10.496 C23.296,9.984 22.784,9.6 22.144,9.344 C21.504,9.088 20.864,9.088 20.096,9.216 C19.84,9.216 19.712,9.216 19.456,9.088 C19.328,9.088 19.2,8.96 19.072,8.704 C19.072,8.448 19.072,8.32 19.2,8.064 C19.328,7.936 19.456,7.808 19.712,7.68 C20.608,7.424 21.632,7.552 22.528,7.808 C23.552,8.192 24.32,8.704 24.96,9.472 Z M21.76,10.624 C22.272,10.752 22.656,11.008 22.912,11.392 C23.296,11.776 23.424,12.16 23.552,12.672 C23.68,13.184 23.68,13.568 23.424,14.08 C23.424,14.208 23.296,14.336 23.04,14.464 C22.912,14.592 22.656,14.592 22.528,14.464 C22.4,14.464 22.272,14.336 22.144,14.08 C22.016,13.952 22.016,13.696 22.144,13.568 C22.272,13.056 22.144,12.672 21.888,12.288 C21.504,11.904 21.12,11.776 20.608,11.904 C20.48,11.904 20.224,11.904 20.096,11.776 C19.968,11.648 19.84,11.52 19.84,11.392 C19.84,11.264 19.84,11.008 19.968,10.88 C20.096,10.752 20.224,10.624 20.352,10.624 C20.736,10.496 21.248,10.496 21.76,10.624 Z" id="Shape" fill="#FFFFFF"></path>
        </g>
    </g>
</svg>