<?xml version="1.0" encoding="UTF-8"?>
<svg width="32px" height="32px" viewBox="0 0 32 32" version="1.1" xmlns="http://www.w3.org/2000/svg" xmlns:xlink="http://www.w3.org/1999/xlink">
    <!-- Generator: Sketch 44.1 (41455) - http://www.bohemiancoding.com/sketch -->
    <title>sm-icons-digg</title>
    <desc>Created with Sketch.</desc>
    <defs></defs>
    <g id="Page-1" stroke="none" stroke-width="1" fill="none" fill-rule="evenodd">
        <g id="sm-icons-digg" fill-rule="nonzero">
            <circle id="Oval" fill="#0071BC" cx="16" cy="16" r="16"></circle>
            <path d="M12.3666667,11.2333333 C12.3666667,11.4666667 12.3666667,12.2833333 12.3666667,12.2833333 L13.8833333,12.2833333 C13.8833333,12.2833333 14.1166667,12.2833333 14.1166667,12.05 C14.1166667,11.8166667 14.1166667,11 14.1166667,11 L12.4833333,11 C12.4833333,11.1166667 12.3666667,11.1166667 12.3666667,11.2333333 Z M12.3666667,13.5666667 C12.3666667,13.8 12.3666667,19.4 12.3666667,19.4 L13.8833333,19.4 C13.8833333,19.4 14.1166667,19.4 14.1166667,19.1666667 L14.1166667,13.3333333 L12.4833333,13.3333333 C12.4833333,13.3333333 12.3666667,13.3333333 12.3666667,13.5666667 Z M10.0333333,11.2333333 L10.0333333,13.3333333 L7.23333333,13.3333333 C7.23333333,13.3333333 7,13.3333333 7,13.5666667 L7,19.4 L11.55,19.4 C11.55,19.4 11.7833333,19.4 11.7833333,19.1666667 C11.7833333,18.9333333 11.7833333,11 11.7833333,11 L10.2666667,11 C10.2666667,11.1166667 10.0333333,11.1166667 10.0333333,11.2333333 Z M10.0333333,17.8833333 C10.0333333,18.1166667 9.8,18.1166667 9.8,18.1166667 L8.75,18.1166667 L8.75,14.85 C8.75,14.6166667 8.98333333,14.6166667 8.98333333,14.6166667 L10.0333333,14.6166667 L10.0333333,17.8833333 Z M14.7,13.5666667 L14.7,19.4 L17.7333333,19.4 L17.7333333,20.2166667 L14.9333333,20.2166667 C14.9333333,20.2166667 14.7,20.2166667 14.7,20.45 C14.7,20.6833333 14.7,21.5 14.7,21.5 L19.25,21.5 C19.25,21.5 19.4833333,21.5 19.4833333,21.2666667 C19.4833333,21.0333333 19.4833333,13.3333333 19.4833333,13.3333333 L14.9333333,13.3333333 C14.9333333,13.3333333 14.7,13.3333333 14.7,13.5666667 Z M16.45,14.85 C16.45,14.6166667 16.6833333,14.6166667 16.6833333,14.6166667 L17.7333333,14.6166667 L17.7333333,17.8833333 C17.7333333,18.1166667 17.5,18.1166667 17.5,18.1166667 L16.45,18.1166667 L16.45,14.85 L16.45,14.85 Z M20.3,13.3333333 C20.3,13.3333333 20.0666667,13.3333333 20.0666667,13.5666667 L20.0666667,19.4 L23.1,19.4 L23.1,20.2166667 L20.3,20.2166667 C20.3,20.2166667 20.0666667,20.2166667 20.0666667,20.45 C20.0666667,20.6833333 20.0666667,21.5 20.0666667,21.5 L24.6166667,21.5 C24.6166667,21.5 24.85,21.5 24.85,21.2666667 C24.85,21.0333333 24.85,13.3333333 24.85,13.3333333 L20.3,13.3333333 L20.3,13.3333333 Z M23.1,17.8833333 C23.1,18.1166667 22.8666667,18.1166667 22.8666667,18.1166667 L21.8166667,18.1166667 L21.8166667,14.85 C21.8166667,14.6166667 22.05,14.6166667 22.05,14.6166667 L23.1,14.6166667 L23.1,17.8833333 Z" id="Shape" fill="#FFFFFF"></path>
        </g>
    </g>
</svg>