<?xml version="1.0" encoding="UTF-8"?>
<svg width="34px" height="34px" viewBox="0 0 34 34" version="1.1" xmlns="http://www.w3.org/2000/svg" xmlns:xlink="http://www.w3.org/1999/xlink">
    <!-- Generator: Sketch 44.1 (41455) - http://www.bohemiancoding.com/sketch -->
    <title>sm-icons-delicious</title>
    <desc>Created with Sketch.</desc>
    <defs></defs>
    <g id="Page-1" stroke="none" stroke-width="1" fill="none" fill-rule="evenodd">
        <g id="sm-icons-delicious" transform="translate(1.000000, 1.000000)">
            <circle id="Oval" stroke="#0071BC" stroke-width="0.5" fill="#0071BC" fill-rule="nonzero" cx="16" cy="16" r="16"></circle>
            <path d="M24.5238095,21.8571429 L24.5238095,16.1428571 L16.1428571,16.1428571 L16.1428571,7.76190476 L10.4285714,7.76190476 C9.6904725,7.76190476 9.06151054,8.0218228 8.54166667,8.54166667 C8.0218228,9.06151054 7.76190476,9.6904725 7.76190476,10.4285714 L7.76190476,16.1428571 L16.1428571,16.1428571 L16.1428571,24.5238095 L21.8571429,24.5238095 C22.5952418,24.5238095 23.2242037,24.2638915 23.7440476,23.7440476 C24.2638915,23.2242038 24.5238095,22.5952418 24.5238095,21.8571429 Z M25.2857143,10.4285714 L25.2857143,21.8571429 C25.2857143,22.801592 24.9504002,23.6091236 24.2797619,24.2797619 C23.6091236,24.9504002 22.801592,25.2857143 21.8571429,25.2857143 L10.4285714,25.2857143 C9.48412226,25.2857143 8.67659065,24.9504002 8.00595238,24.2797619 C7.33531411,23.6091236 7,22.801592 7,21.8571429 L7,10.4285714 C7,9.48412226 7.33531411,8.67659065 8.00595238,8.00595238 C8.67659065,7.33531411 9.48412226,7 10.4285714,7 L21.8571429,7 C22.801592,7 23.6091236,7.33531411 24.2797619,8.00595238 C24.9504002,8.67659065 25.2857143,9.48412226 25.2857143,10.4285714 Z" id="" fill="#FFFFFF"></path>
        </g>
    </g>
</svg>